<mxfile host="65bd71144e">
    <diagram id="OeKHbXyreF80L7cJFZtJ" name="Page-1">
        <mxGraphModel dx="641" dy="971" grid="1" gridSize="10" guides="1" tooltips="1" connect="1" arrows="1" fold="1" page="1" pageScale="1" pageWidth="850" pageHeight="1100" math="0" shadow="0">
            <root>
                <mxCell id="0"/>
                <mxCell id="1" parent="0"/>
                <mxCell id="31" value="" style="rounded=0;whiteSpace=wrap;html=1;" vertex="1" parent="1">
                    <mxGeometry x="220" y="210" width="130" height="130" as="geometry"/>
                </mxCell>
                <mxCell id="32" value="" style="ellipse;whiteSpace=wrap;html=1;aspect=fixed;" vertex="1" parent="1">
                    <mxGeometry x="230" y="210" width="80" height="80" as="geometry"/>
                </mxCell>
                <mxCell id="33" value="" style="ellipse;fillColor=#000000;" vertex="1" parent="1">
                    <mxGeometry x="210" y="110" width="10" height="10" as="geometry"/>
                </mxCell>
                <mxCell id="34" value="" style="ellipse;fillColor=#000000;" vertex="1" parent="1">
                    <mxGeometry x="490" y="240" width="10" height="10" as="geometry"/>
                </mxCell>
                <mxCell id="35" value="" style="ellipse;fillColor=#000000;" vertex="1" parent="1">
                    <mxGeometry x="160" y="480" width="10" height="10" as="geometry"/>
                </mxCell>
                <mxCell id="36" value="crawler 1" style="shape=umlActor;verticalLabelPosition=bottom;verticalAlign=top;html=1;outlineConnect=0;fillColor=#000000;" vertex="1" parent="1">
                    <mxGeometry x="205" y="40" width="20" height="40" as="geometry"/>
                </mxCell>
                <mxCell id="37" value="vertex 1" style="text;html=1;strokeColor=none;fillColor=none;align=center;verticalAlign=middle;whiteSpace=wrap;rounded=0;" vertex="1" parent="1">
                    <mxGeometry x="185" y="120" width="60" height="30" as="geometry"/>
                </mxCell>
                <mxCell id="38" value="vertex 2" style="text;html=1;strokeColor=none;fillColor=none;align=center;verticalAlign=middle;whiteSpace=wrap;rounded=0;" vertex="1" parent="1">
                    <mxGeometry x="465" y="250" width="60" height="30" as="geometry"/>
                </mxCell>
                <mxCell id="39" value="vertex 3" style="text;html=1;strokeColor=none;fillColor=none;align=center;verticalAlign=middle;whiteSpace=wrap;rounded=0;" vertex="1" parent="1">
                    <mxGeometry x="135" y="490" width="60" height="30" as="geometry"/>
                </mxCell>
                <mxCell id="40" value="crawler 2" style="shape=umlActor;verticalLabelPosition=bottom;verticalAlign=top;html=1;outlineConnect=0;fillColor=#000000;" vertex="1" parent="1">
                    <mxGeometry x="485" y="170" width="20" height="40" as="geometry"/>
                </mxCell>
                <mxCell id="41" value="" style="endArrow=none;dashed=1;html=1;dashPattern=1 3;strokeWidth=2;exitX=0.5;exitY=0;exitDx=0;exitDy=0;entryX=0;entryY=0.5;entryDx=0;entryDy=0;" edge="1" parent="1" source="33" target="34">
                    <mxGeometry width="50" height="50" relative="1" as="geometry">
                        <mxPoint x="300" y="520" as="sourcePoint"/>
                        <mxPoint x="350" y="470" as="targetPoint"/>
                    </mxGeometry>
                </mxCell>
                <mxCell id="42" value="" style="endArrow=none;dashed=1;html=1;dashPattern=1 3;strokeWidth=2;exitX=0;exitY=0;exitDx=0;exitDy=0;entryX=0;entryY=0;entryDx=0;entryDy=0;" edge="1" parent="1" source="33" target="35">
                    <mxGeometry width="50" height="50" relative="1" as="geometry">
                        <mxPoint x="225" y="120" as="sourcePoint"/>
                        <mxPoint x="500" y="255" as="targetPoint"/>
                    </mxGeometry>
                </mxCell>
                <mxCell id="43" value="" style="endArrow=none;dashed=1;html=1;dashPattern=1 3;strokeWidth=2;exitX=0.5;exitY=0;exitDx=0;exitDy=0;entryX=0.5;entryY=1;entryDx=0;entryDy=0;" edge="1" parent="1" source="39" target="34">
                    <mxGeometry width="50" height="50" relative="1" as="geometry">
                        <mxPoint x="221.46446609406735" y="121.46446609406735" as="sourcePoint"/>
                        <mxPoint x="171.46446609406735" y="491.46446609406735" as="targetPoint"/>
                    </mxGeometry>
                </mxCell>
            </root>
        </mxGraphModel>
    </diagram>
</mxfile>